{
  "accessors": [
    {
      "bufferView": 2,
      "componentType": 5126,
      "count": 60669,
      "max": [
        30.780044555664063,
        167.76815795898438,
        10.875794410705566
      ],
      "min": [
        -30.080814361572266,
        108.9153060913086,
        -15.07409381866455
      ],
      "type": "VEC3"
    },
    {
      "bufferView": 2,
      "byteOffset": 728028,
      "componentType": 5126,
      "count": 60669,
      "max": [
        1.0,
        0.999995231628418,
        0.9999874234199524
      ],
      "min": [
        -1.0,
        -0.9999864101409912,
        -0.9999990463256836
      ],
      "type": "VEC3"
    },
    {
      "bufferView": 1,
      "componentType": 5126,
      "count": 60669,
      "max": [
        0.9935411214828491,
        0.996337890625
      ],
      "min": [
        0.003662109375,
        0.003662114730104804
      ],
      "type": "VEC2"
    },
    {
      "bufferView": 0,
      "componentType": 5125,
      "count": 327234,
      "type": "SCALAR"
    }
  ],
  "asset": {
    "extras": {
      "author": "Kirll (https://sketchfab.com/milk8982618milk)",
      "license": "CC-BY-4.0 (http://creativecommons.org/licenses/by/4.0/)",
      "source": "https://sketchfab.com/3d-models/womens-shirt-cfe3a4c135424c65825fb07503021f3d",
      "title": "women's shirt"
    },
    "generator": "Sketchfab-15.17.0",
    "version": "2.0"
  },
  "bufferViews": [
    {
      "buffer": 0,
      "byteLength": 1308936,
      "name": "floatBufferViews",
      "target": 34963
    },
    {
      "buffer": 0,
      "byteLength": 485352,
      "byteOffset": 1308936,
      "byteStride": 8,
      "name": "floatBufferViews",
      "target": 34962
    },
    {
      "buffer": 0,
      "byteLength": 1456056,
      "byteOffset": 1794288,
      "byteStride": 12,
      "name": "floatBufferViews",
      "target": 34962
    }
  ],
  "buffers": [
    {
      "byteLength": 3250344,
      "uri": "scene.bin"
    }
  ],
  "extensionsUsed": [
    "KHR_materials_specular"
  ],
  "images": [
    {
      "uri": "textures/Oversized-sweater_FABRIC_1_FRONT_3915_010_baseColor.png"
    }
  ],
  "materials": [
    {
      "doubleSided": true,
      "extensions": {
        "KHR_materials_specular": {
          "specularColorFactor": [
            1.0,
            1.0,
            1.0
          ],
          "specularFactor": 0.42514415282027523
        }
      },
      "name": "Oversized-sweater_FABRIC_1_FRONT_3915_010",
      "pbrMetallicRoughness": {
        "baseColorTexture": {
          "index": 0
        },
        "metallicFactor": 0.0,
        "roughnessFactor": 0.8929713596497552
      }
    }
  ],
  "meshes": [
    {
      "name": "FO_001_Oversized-sweater_FABRIC_1_FRONT_3915_010_0",
      "primitives": [
        {
          "attributes": {
            "NORMAL": 1,
            "POSITION": 0,
            "TEXCOORD_0": 2
          },
          "indices": 3,
          "material": 0,
          "mode": 4
        }
      ]
    }
  ],
  "nodes": [
    {
      "children": [
        1
      ],
      "matrix": [
        1.0,
        0.0,
        0.0,
        0.0,
        0.0,
        2.220446049250313e-16,
        -1.0,
        0.0,
        0.0,
        1.0,
        2.220446049250313e-16,
        0.0,
        0.0,
        0.0,
        0.0,
        1.0
      ],
      "name": "Sketchfab_model"
    },
    {
      "children": [
        2
      ],
      "matrix": [
        0.02539999969303608,
        0.0,
        0.0,
        0.0,
        0.0,
        0.0,
        0.02539999969303608,
        0.0,
        0.0,
        -0.02539999969303608,
        0.0,
        0.0,
        0.0,
        0.0,
        0.0,
        1.0
      ],
      "name": "a7f46506953b43aa9f012f194d7973c6.fbx"
    },
    {
      "children": [
        3
      ],
      "name": "RootNode"
    },
    {
      "children": [
        4
      ],
      "matrix": [
        1.0,
        0.0,
        0.0,
        0.0,
        0.0,
        0.9999999999999867,
        1.6292068494294582e-07,
        0.0,
        0.0,
        -1.6292068494294582e-07,
        0.9999999999999867,
        0.0,
        -12.444320678710938,
        0.0,
        20.37054443359375,
        1.0
      ],
      "name": "Black_Wedding_Dress_001_v01"
    },
    {
      "children": [
        5
      ],
      "matrix": [
        0.31150001287460327,
        0.0,
        0.0,
        0.0,
        0.0,
        0.31150001287460327,
        1.3234890347859537e-23,
        0.0,
        0.0,
        -1.3234890347859537e-23,
        0.31150001287460327,
        0.0,
        12.444320678710938,
        -3.337860107421875e-06,
        -20.37054443359375,
        1.0
      ],
      "name": "FO_001"
    },
    {
      "children": [
        6
      ],
      "matrix": [
        1.0,
        0.0,
        -0.0,
        0.0,
        0.0,
        1.0,
        0.0,
        0.0,
        0.0,
        0.0,
        1.0,
        0.0,
        -0.34961509704589844,
        -138.34173583984375,
        2.0991499423980713,
        1.0
      ],
      "name": "Object_5"
    },
    {
      "mesh": 0,
      "name": "FO_001_Oversized-sweater_FABRIC_1_FRONT_3915_010_0"
    }
  ],
  "samplers": [
    {
      "magFilter": 9729,
      "minFilter": 9987,
      "wrapS": 10497,
      "wrapT": 10497
    }
  ],
  "scene": 0,
  "scenes": [
    {
      "name": "Sketchfab_Scene",
      "nodes": [
        0
      ]
    }
  ],
  "textures": [
    {
      "sampler": 0,
      "source": 0
    }
  ]
}
