{
  "accessors": [
    {
      "bufferView": 2,
      "componentType": 5126,
      "count": 65532,
      "max": [
        19.072265625,
        103.97207641601563,
        7.961949825286865
      ],
      "min": [
        -19.21434783935547,
        35.896636962890625,
        -13.783171653747559
      ],
      "type": "VEC3"
    },
    {
      "bufferView": 2,
      "byteOffset": 786384,
      "componentType": 5126,
      "count": 65532,
      "max": [
        0.9999816417694092,
        0.9999610185623169,
        0.9999911189079285
      ],
      "min": [
        -0.9999765753746033,
        -0.9999932646751404,
        -0.9999887347221375
      ],
      "type": "VEC3"
    },
    {
      "bufferView": 3,
      "componentType": 5126,
      "count": 65532,
      "max": [
        0.9999998807907104,
        0.9998482465744019,
        0.9999890923500061,
        1.0
      ],
      "min": [
        -0.9999998211860657,
        -0.9999884963035583,
        -0.9999955892562866,
        -1.0
      ],
      "type": "VEC4"
    },
    {
      "bufferView": 1,
      "componentType": 5126,
      "count": 65532,
      "max": [
        0.9798570275306702,
        1.0
      ],
      "min": [
        -0.00016399999731220305,
        -3.600000127335079e-05
      ],
      "type": "VEC2"
    },
    {
      "bufferView": 0,
      "componentType": 5125,
      "count": 351813,
      "type": "SCALAR"
    },
    {
      "bufferView": 2,
      "byteOffset": 1572768,
      "componentType": 5126,
      "count": 21928,
      "max": [
        9.908731460571289,
        103.5567626953125,
        5.919002056121826
      ],
      "min": [
        -5.204082012176514,
        66.71308135986328,
        -9.03075122833252
      ],
      "type": "VEC3"
    },
    {
      "bufferView": 2,
      "byteOffset": 1835904,
      "componentType": 5126,
      "count": 21928,
      "max": [
        0.9998963475227356,
        0.9999942183494568,
        0.9999665021896362
      ],
      "min": [
        -0.9999966025352478,
        -0.9999775290489197,
        -0.9999922513961792
      ],
      "type": "VEC3"
    },
    {
      "bufferView": 3,
      "byteOffset": 1048512,
      "componentType": 5126,
      "count": 21928,
      "max": [
        0.9999727606773376,
        0.9999609589576721,
        0.9995540380477905,
        1.0
      ],
      "min": [
        -0.9999013543128967,
        -0.9999356269836426,
        -0.9997758269309998,
        1.0
      ],
      "type": "VEC4"
    },
    {
      "bufferView": 1,
      "byteOffset": 524256,
      "componentType": 5126,
      "count": 21928,
      "max": [
        0.24864499270915985,
        0.9325399994850159
      ],
      "min": [
        0.1689230054616928,
        0.9166409969329834
      ],
      "type": "VEC2"
    },
    {
      "bufferView": 0,
      "byteOffset": 1407252,
      "componentType": 5125,
      "count": 112914,
      "type": "SCALAR"
    }
  ],
  "asset": {
    "extras": {
      "author": "Mariia Moskvina (https://sketchfab.com/mariia89)",
      "license": "CC-BY-NC-ND-4.0 (http://creativecommons.org/licenses/by-nc-nd/4.0/)",
      "source": "https://sketchfab.com/3d-models/dress-for-kids-design-patent-2e9661e691c74a229f3bafe7472fa1d6",
      "title": "Dress for kids (Design patent)"
    },
    "generator": "Sketchfab-15.37.0",
    "version": "2.0"
  },
  "bufferViews": [
    {
      "buffer": 0,
      "byteLength": 1858908,
      "name": "floatBufferViews",
      "target": 34963
    },
    {
      "buffer": 0,
      "byteLength": 699680,
      "byteOffset": 1858908,
      "byteStride": 8,
      "name": "floatBufferViews",
      "target": 34962
    },
    {
      "buffer": 0,
      "byteLength": 2099040,
      "byteOffset": 2558588,
      "byteStride": 12,
      "name": "floatBufferViews",
      "target": 34962
    },
    {
      "buffer": 0,
      "byteLength": 1399360,
      "byteOffset": 4657628,
      "byteStride": 16,
      "name": "floatBufferViews",
      "target": 34962
    }
  ],
  "buffers": [
    {
      "byteLength": 6056988,
      "uri": "scene.bin"
    }
  ],
  "extensionsUsed": [
    "KHR_materials_specular"
  ],
  "images": [
    {
      "uri": "textures/Material__2_baseColor.png"
    },
    {
      "uri": "textures/Material__2_metallicRoughness.png"
    },
    {
      "uri": "textures/Material__2_normal.png"
    }
  ],
  "materials": [
    {
      "alphaMode": "BLEND",
      "doubleSided": true,
      "extensions": {
        "KHR_materials_specular": {
          "specularColorFactor": [
            1.0,
            1.0,
            1.0
          ],
          "specularFactor": 0.6222059020674139
        }
      },
      "name": "Material__2",
      "normalTexture": {
        "index": 2
      },
      "pbrMetallicRoughness": {
        "baseColorTexture": {
          "index": 0
        },
        "metallicRoughnessTexture": {
          "index": 1
        }
      }
    }
  ],
  "meshes": [
    {
      "name": "defaultMaterial",
      "primitives": [
        {
          "attributes": {
            "NORMAL": 1,
            "POSITION": 0,
            "TANGENT": 2,
            "TEXCOORD_0": 3
          },
          "indices": 4,
          "material": 0,
          "mode": 4
        }
      ]
    },
    {
      "name": "defaultMaterial",
      "primitives": [
        {
          "attributes": {
            "NORMAL": 6,
            "POSITION": 5,
            "TANGENT": 7,
            "TEXCOORD_0": 8
          },
          "indices": 9,
          "material": 0,
          "mode": 4
        }
      ]
    }
  ],
  "nodes": [
    {
      "children": [
        1
      ],
      "matrix": [
        1.0,
        0.0,
        0.0,
        0.0,
        0.0,
        2.220446049250313e-16,
        -1.0,
        0.0,
        0.0,
        1.0,
        2.220446049250313e-16,
        0.0,
        0.0,
        0.0,
        0.0,
        1.0
      ],
      "name": "Sketchfab_model"
    },
    {
      "children": [
        2
      ],
      "matrix": [
        1.0,
        0.0,
        0.0,
        0.0,
        0.0,
        -4.371139006309477e-08,
        0.999999999999999,
        0.0,
        0.0,
        -0.999999999999999,
        -4.371139006309477e-08,
        0.0,
        0.0,
        0.0,
        0.0,
        1.0
      ],
      "name": "Collada visual scene group"
    },
    {
      "children": [
        3,
        4
      ],
      "matrix": [
        10.0,
        0.0,
        0.0,
        0.0,
        0.0,
        10.0,
        2e-06,
        0.0,
        0.0,
        -2e-06,
        10.0,
        0.0,
        0.0,
        0.0,
        0.0,
        1.0
      ],
      "name": "Object"
    },
    {
      "mesh": 0,
      "name": "defaultMaterial"
    },
    {
      "mesh": 1,
      "name": "defaultMaterial"
    }
  ],
  "samplers": [
    {
      "magFilter": 9729,
      "minFilter": 9987,
      "wrapS": 10497,
      "wrapT": 10497
    }
  ],
  "scene": 0,
  "scenes": [
    {
      "name": "Sketchfab_Scene",
      "nodes": [
        0
      ]
    }
  ],
  "textures": [
    {
      "sampler": 0,
      "source": 0
    },
    {
      "sampler": 0,
      "source": 1
    },
    {
      "sampler": 0,
      "source": 2
    }
  ]
}
